<svg xmlns="http://www.w3.org/2000/svg" viewBox="0 0 96 96" role="img" aria-labelledby="title desc">
  <title id="title">BookSocial</title>
  <desc id="desc">Icono de BookSocial con libro abierto y monograma B.</desc>
  <rect width="96" height="96" rx="24" fill="#163528"/>
  <path d="M18 25.5c0-4.4 3.9-7.9 8.2-7.2 8 1.2 15.2 4.1 21.8 8.7 6.6-4.6 13.8-7.5 21.8-8.7 4.3-.7 8.2 2.8 8.2 7.2v44.2c0 3.3-2.4 6.1-5.7 6.6-7.9 1.1-14.8 3.9-20.7 8.2-2.1 1.5-4.9 1.5-7 0-5.9-4.3-12.8-7.1-20.7-8.2-3.3-.5-5.7-3.3-5.7-6.6V25.5z" fill="#F6F3ED"/>
  <path d="M48 29.7v48.1c-6.2-4.5-13.6-7.4-22.2-8.7V26.8c8.6 1.4 16 4.4 22.2 8.9zm0 0c6.2-4.5 13.6-7.5 22.2-8.9v42.3c-8.6 1.3-16 4.2-22.2 8.7V29.7z" fill="#FCF9F3"/>
  <path d="M48 27.4v52.8" stroke="#2D4C3E" stroke-width="3.2" stroke-linecap="round"/>
  <path d="M35.5 34.8h9.4c5.5 0 8.8 2.6 8.8 6.8 0 2.6-1.3 4.5-3.7 5.6 3.2 1 5.1 3.4 5.1 6.6 0 4.8-3.8 7.7-10 7.7h-9.6V34.8zm8.7 10.7c2.5 0 3.9-1.1 3.9-3.1 0-1.9-1.4-2.9-3.9-2.9h-3.3v6h3.3zm.6 11.2c3 0 4.6-1.2 4.6-3.4s-1.6-3.4-4.6-3.4h-3.9v6.8h3.9z" fill="#2D4C3E"/>
  <path d="M24.8 23.7c8.7 1.3 16.5 4.5 23.2 9.5 6.7-5 14.5-8.2 23.2-9.5" fill="none" stroke="#C0ECDA" stroke-width="3.4" stroke-linecap="round"/>
</svg>
